<svg width="13" height="7" viewBox="0 0 13 7" fill="none" xmlns="http://www.w3.org/2000/svg">
<path d="M6.54965 6.99831C6.71072 6.98618 6.86328 6.91755 6.98297 6.80339L12.7606 1.32662C12.9525 1.1449 13.0378 0.869116 12.9843 0.603183C12.9308 0.33725 12.7467 0.121572 12.5013 0.0374035C12.2559 -0.0467651 11.9865 0.013365 11.7946 0.19514L6.49999 5.21551L1.20539 0.19514C1.01349 0.013365 0.744099 -0.0467651 0.498695 0.0374035C0.253292 0.121572 0.069169 0.33725 0.0156927 0.603183C-0.0377836 0.869116 0.047513 1.1449 0.239448 1.32662L6.01703 6.80339C6.16216 6.94168 6.35437 7.01203 6.54965 6.99831Z" fill="#7A8089"/>
</svg>
