<svg width="35" height="23" viewBox="0 0 35 23" fill="none" xmlns="http://www.w3.org/2000/svg">
<path d="M7.28787 10.3713H0V11.811H7.28787V10.3713Z" fill="#5C6777"/>
<path d="M9.04226 7.26001H1.75439V8.69893H9.04226V7.26001Z" fill="#5C6777"/>
<path d="M10.7962 4.14856H3.50757V5.58821H10.7962V4.14856Z" fill="#5C6777"/>
<path d="M34.8053 9.3805L29.4536 3.67992C29.317 3.53596 29.1268 3.45223 28.9284 3.45223H24.4339V3.1665C24.4339 1.42055 23.0126 0 21.2667 0H7.10229C5.5128 0 4.2061 1.17963 3.98207 2.70816H5.44522C5.64722 1.97879 6.31048 1.43892 7.10229 1.43892H21.2674C22.2201 1.43892 22.995 2.21457 22.995 3.1665V17.8612H14.991C14.6524 16.1094 13.1114 14.7814 11.2641 14.7814C9.41455 14.7814 7.87427 16.1101 7.53566 17.8612H7.10229C6.14962 17.8612 5.37471 17.0856 5.37471 16.1336V13.2492H3.93506V16.1336C3.93506 17.8796 5.35635 19.3001 7.10229 19.3001H7.53566C7.87427 21.0527 9.41528 22.3814 11.2641 22.3814C13.1128 22.3814 14.6524 21.0527 14.991 19.3001H23.7148H25.4836C25.8222 21.0527 27.3632 22.3814 29.212 22.3814C31.0607 22.3814 32.6017 21.0527 32.9389 19.3001H34.2801C34.6775 19.3001 34.9999 18.9784 34.9999 18.581V9.87263C35.0007 9.68973 34.9302 9.51418 34.8053 9.3805ZM11.2641 20.9418C9.96176 20.9418 8.90259 19.8833 8.90259 18.581C8.90259 17.2788 9.96103 16.221 11.2641 16.221C12.5649 16.221 13.6241 17.2795 13.6241 18.5818C13.6241 19.8833 12.5649 20.9418 11.2641 20.9418ZM24.4339 4.89335H28.6163L32.6164 9.15354H24.4339V4.89335ZM29.212 20.9418C27.9104 20.9418 26.8505 19.8833 26.8505 18.581C26.8505 17.2788 27.9097 16.221 29.212 16.221C30.5128 16.221 31.572 17.2795 31.572 18.5818C31.572 19.8833 30.5135 20.9418 29.212 20.9418ZM33.5603 17.862H32.9396C32.6017 16.1101 31.0607 14.7821 29.2127 14.7821C27.3632 14.7821 25.8229 16.1109 25.4843 17.862H24.4339V10.5932H33.5603V17.862Z" fill="#5C6777"/>
</svg>
